<svg xmlns="http://www.w3.org/2000/svg" width="964.71029" height="806.00281" viewBox="0 0 964.71029 806.00281" xmlns:xlink="http://www.w3.org/1999/xlink" role="img" artist="Katerina Limpitsouni" source="https://undraw.co/">
  <circle cx="661.70066" cy="243.94745" r="185" fill="#e6e6e6"/>
  <rect x="320.70066" y="140.94745" width="306" height="2" fill="#3f3d56"/>
  <rect x="320.70066" y="195.94745" width="601" height="2" fill="#3f3d56"/>
  <path d="M854.34551,439.946c-102.56055,0-186-83.43945-186-186s83.43945-186,186-186,186,83.43945,186,186S956.90606,439.946,854.34551,439.946Zm0-370c-101.458,0-184,82.542-184,184s82.542,184,184,184,184-82.542,184-184S955.80352,69.946,854.34551,69.946Z" transform="translate(-117.64486 -46.99859)" fill="#3f3d56"/>
  <circle cx="719.54007" cy="24.42044" r="24.42044" fill="#A32446"/>
  <circle cx="551.39847" cy="193.85839" r="15.80146" fill="#ff6584"/>
  <circle cx="928.62295" cy="194.11826" r="36.08734" fill="#A32446"/>
</svg>
