<svg xmlns="http://www.w3.org/2000/svg" width="880.10954" height="739.20957" viewBox="0 0 880.10954 739.20957" xmlns:xlink="http://www.w3.org/1999/xlink" role="img" artist="Katerina Limpitsouni" source="https://undraw.co/">
  <ellipse cx="546.44347" cy="467.99285" rx="7.55666" ry="5.25681" transform="translate(-247.29329 34.69905) rotate(-8.27826)" fill="#e6e6e6"/>
  <ellipse cx="497.27195" cy="463.19479" rx="7.55666" ry="5.2568" transform="translate(-247.1148 27.56931) rotate(-8.27826)" fill="#3f3d56"/>
  <ellipse cx="559.90808" cy="428.18469" rx="7.55666" ry="5.25681" transform="translate(-241.42139 36.22292) rotate(-8.27826)" fill="#ff6584"/>
  <ellipse cx="577.11864" cy="412.9416" rx="3.3223" ry="4.77581" transform="translate(-188.711 -44.47879) rotate(-0.43325)" fill="#e6e6e6"/>
  <ellipse cx="584.36437" cy="382.56999" rx="3.3223" ry="4.77581" transform="translate(-188.48114 -44.42487) rotate(-0.43325)" fill="#3f3d56"/>
  <ellipse cx="528.01921" cy="436.0219" rx="3.3223" ry="4.77581" transform="translate(-188.88693 -44.8494) rotate(-0.43325)" fill="#e6e6e6"/>
  <ellipse cx="551.78101" cy="447.88589" rx="3.3223" ry="4.77581" transform="translate(-188.97596 -44.66938) rotate(-0.43325)" fill="#ff6584"/>
  <ellipse cx="518.70375" cy="469.81364" rx="3.3223" ry="4.77581" transform="translate(-189.14271 -44.91887) rotate(-0.43325)" fill="#3f3d56"/>
  <ellipse cx="391.56981" cy="497.29287" rx="7.55666" ry="5.25681" transform="translate(-288.25212 52.99335) rotate(-13.11814)" fill="#e6e6e6"/>
  <ellipse cx="440.97082" cy="497.92514" rx="7.55666" ry="5.2568" transform="translate(-287.10646 64.22189) rotate(-13.11814)" fill="#3f3d56"/>
  <ellipse cx="381.51189" cy="538.09512" rx="7.55666" ry="5.25681" transform="translate(-297.77506 51.77538) rotate(-13.11814)" fill="#ff6584"/>
  <ellipse cx="365.64878" cy="554.73593" rx="3.3223" ry="4.77581" transform="translate(-235.03984 -12.90233) rotate(-5.27313)" fill="#e6e6e6"/>
  <ellipse cx="360.99138" cy="585.61058" rx="3.3223" ry="4.77581" transform="translate(-237.89704 -13.1997) rotate(-5.27313)" fill="#3f3d56"/>
  <ellipse cx="412.62582" cy="527.59533" rx="3.3223" ry="4.77581" transform="translate(-232.34671 -8.69983) rotate(-5.27313)" fill="#e6e6e6"/>
  <ellipse cx="387.94776" cy="517.77846" rx="3.3223" ry="4.77581" transform="translate(-231.54894 -11.00938) rotate(-5.27313)" fill="#ff6584"/>
  <ellipse cx="419.057" cy="493.13813" rx="3.3223" ry="4.77581" transform="translate(-229.15275 -8.25461) rotate(-5.27313)" fill="#3f3d56"/>
  <path d="M782.95509,563.29039a116.39962,116.39962,0,0,1-75.65054-27.93567c-7.03286-6.02007-14.52641-16.486-22.27193-31.10506a71.13527,71.13527,0,0,1-2.25611-61.41172,81.62622,81.62622,0,0,1-13.47965,11.05649l-2.46441,1.6397-.14237-2.955c-.09344-1.922-.14076-3.83757-.14076-5.69326,0-10.93636,8.27161-22.03379,4.45682-32.1425C654.92772,372.13772,603.931,329.79628,677.8408,263.858c6.83709-6.09969-2.29615-18.29521-2.29615-27.52392,0-90.44349,127.82751-246.91362,164.0563-164.02436,44.67928,102.22342,121.65546,91.28941,155.75668,112.40356l.4947,1.49369-1.45769.58972a87.918,87.918,0,0,1-23.35954,6.213,111.39175,111.39175,0,0,0,26.04681,2.1821l1.355-.04733.33005,1.31694a164.77422,164.77422,0,0,1,4.8908,39.87268l-.00607,1.45285a72.65139,72.65139,0,0,0,23.99981,54.17136,116.66888,116.66888,0,0,1,38.0631,86.091c0,19.17372-13.03149,44.34244-23.96381,62.0803a35.1042,35.1042,0,0,1-25.77016,16.50627,34.28236,34.28236,0,0,1-27.66751-8.9379,113.37235,113.37235,0,0,0,19.99317,28.30616l1.49167,1.537-1.852,1.07911a116.3145,116.3145,0,0,1-58.63546,15.83485l-1.20652-.00323c-31.279,0-60.96883,12.1178-81.45666,33.24712A117.285,117.285,0,0,1,782.95509,563.29039Z" transform="translate(-185.60503 -48.8545)" fill="#e6e6e6"/>
  <path d="M799.63081,448.14031a2.09342,2.09342,0,0,1-1.23242-3.78685c.25231-.18331,25.681-18.50563,63.69657-32.425,35.14253-12.86589,88.582-24.5297,143.597-7.02036a2.09319,2.09319,0,1,1-1.26956,3.98924c-53.88785-17.14953-106.35862-5.67857-140.88783,6.96312-37.47294,13.72044-62.427,31.7-62.67473,31.87989A2.08521,2.08521,0,0,1,799.63081,448.14031Z" transform="translate(-185.60503 -48.8545)" fill="#3f3d56"/>
  <path d="M703.81853,209.50787a2.09343,2.09343,0,0,1,3.68827-1.50193c.201.23846,20.307,24.28166,36.928,61.1961C759.798,303.32678,775.28,355.78752,761.778,411.92059a2.09319,2.09319,0,1,1-4.07031-.979c13.22427-54.983-1.99558-106.49141-17.09107-140.02058-16.38343-36.38757-36.11336-59.98205-36.31063-60.21616A2.08523,2.08523,0,0,1,703.81853,209.50787Z" transform="translate(-185.60503 -48.8545)" fill="#3f3d56"/>
</svg>
