<svg id="_x31_" enable-background="new 0 0 24 24" height="512" viewBox="0 0 24 24" width="512" xmlns="http://www.w3.org/2000/svg"><g><path d="m10 24c-.551 0-1-.449-1-1 0-.018.001-.085.003-.103l.941-8.897h-4.944c-.551 0-1-.449-1-1 0-.213.073-.432.201-.601l2.023-3.036c.152-.23.462-.292.693-.139.23.153.292.463.139.693l-2.04 3.06 5.484.023c.142 0 .277.06.372.166s.141.246.125.387l-1 9.45 4.042-5.837c.157-.228.468-.285.696-.126.227.157.284.469.126.696l-4.05 5.85c-.198.264-.498.414-.811.414z"/></g><g><path d="m15.68 16.18c-.098 0-.197-.029-.284-.089-.228-.157-.284-.468-.127-.695l3.72-5.38-6.489-.016c-.143 0-.279-.061-.374-.168s-.14-.249-.123-.391l1-8.44-4.747 7.116c-.153.23-.463.291-.694.139-.23-.153-.292-.464-.139-.693l4.76-7.14c.204-.273.504-.423.817-.423.551 0 1 .449 1 1 0 .02-.001.099-.003.119l-.934 7.881h5.937c.551 0 1 .449 1 1 0 .213-.073.432-.201.601l-3.708 5.363c-.096.141-.253.216-.411.216z"/></g><g><path d="m23.5 24c-.128 0-.256-.049-.354-.146l-23-23c-.195-.195-.195-.512 0-.707s.512-.195.707 0l23 23c.195.195.195.512 0 .707-.097.097-.225.146-.353.146z"/></g></svg>