<?xml version="1.0" encoding="iso-8859-1"?>
<!-- Generator: Adobe Illustrator 19.0.0, SVG Export Plug-In . SVG Version: 6.00 Build 0)  -->
<svg version="1.1" id="Capa_1" xmlns="http://www.w3.org/2000/svg" xmlns:xlink="http://www.w3.org/1999/xlink" x="0px" y="0px"
	 viewBox="0 0 512 512" style="enable-background:new 0 0 512 512;" xml:space="preserve">
<path style="fill:#B5EFFF;" d="M76.115,235.344c-4.042,0-8.069-1.62-11.028-4.821c-5.629-6.088-5.256-15.587,0.833-21.216
	L230.824,56.855c6.088-5.629,15.588-5.256,21.216,0.833c5.629,6.088,5.256,15.587-0.833,21.216L86.304,231.355
	C83.416,234.024,79.761,235.344,76.115,235.344z"/>
<path style="fill:#80DBFF;" d="M451.811,235.344c-3.645,0-7.3-1.319-10.188-3.99L276.72,78.903
	c-6.088-5.629-6.462-15.128-0.833-21.216c5.629-6.088,15.127-6.463,21.216-0.833l164.903,152.452
	c6.088,5.629,6.462,15.128,0.833,21.216C459.88,233.723,455.852,235.344,451.811,235.344z"/>
<path style="fill:#FFB13B;" d="M305.965,52.772c0,23.251-18.917,42.158-42.168,42.158s-42.168-18.907-42.168-42.158
	s18.917-42.168,42.168-42.168S305.965,29.522,305.965,52.772z"/>
<path style="fill:#FF9500;" d="M305.965,52.772c0,23.251-18.917,42.158-42.168,42.158V10.605
	C287.048,10.605,305.965,29.522,305.965,52.772z"/>
<path style="fill:#549CFF;" d="M512,239.63v227.454c0,18.917-15.394,34.311-34.321,34.311H34.311
	C15.394,501.395,0,486.002,0,467.085V239.63c0-18.917,15.394-34.311,34.311-34.311h443.368C496.606,205.319,512,220.713,512,239.63z
	"/>
<path style="fill:#4A7AFF;" d="M512,239.63v227.454c0,18.917-15.394,34.311-34.321,34.311H263.797V205.319h213.882
	C496.606,205.319,512,220.713,512,239.63z"/>
<path style="fill:#D2EB5A;" d="M512,416.349v50.736c0,18.917-15.394,34.311-34.321,34.311H34.311
	C15.394,501.395,0,486.002,0,467.085v-50.736h95.536l50.896-83.735l0.15-0.25c0.06-0.11,0.14-0.2,0.21-0.31
	c0.18-0.28,0.37-0.571,0.571-0.841c0.12-0.16,0.24-0.3,0.36-0.45c0.18-0.23,0.37-0.46,0.571-0.681c0.16-0.18,0.33-0.35,0.5-0.52
	c0.17-0.17,0.34-0.34,0.52-0.5c0.22-0.2,0.45-0.39,0.681-0.571c0.15-0.12,0.29-0.25,0.45-0.36c0.27-0.21,0.561-0.39,0.841-0.581
	c0.11-0.06,0.2-0.14,0.31-0.21c0.03-0.01,0.06-0.03,0.09-0.05c0.29-0.17,0.581-0.32,0.881-0.47c0.16-0.08,0.31-0.17,0.47-0.25
	c0.23-0.11,0.48-0.2,0.721-0.3c0.22-0.09,0.44-0.19,0.671-0.27c0.14-0.05,0.29-0.08,0.43-0.13c0.33-0.1,0.661-0.21,0.991-0.29
	c0.02-0.01,0.05-0.01,0.07-0.02c0.921-0.21,1.842-0.35,2.772-0.39c0.21-0.01,0.42,0,0.631,0c0.27,0,0.53-0.02,0.791,0
	c0.911,0.04,1.822,0.17,2.722,0.38c0.04,0.01,0.08,0.02,0.12,0.03c0.32,0.07,0.641,0.18,0.961,0.28c0.15,0.04,0.3,0.08,0.45,0.14
	c0.23,0.07,0.45,0.17,0.671,0.26c0.24,0.1,0.49,0.19,0.731,0.31c0.15,0.07,0.31,0.16,0.46,0.23c0.3,0.16,0.601,0.31,0.891,0.48
	c0.03,0.02,0.06,0.04,0.09,0.05c0.1,0.07,0.2,0.14,0.3,0.21c0.29,0.18,0.571,0.37,0.851,0.581c0.15,0.11,0.3,0.23,0.45,0.35
	c0.23,0.19,0.46,0.37,0.681,0.57c0.18,0.16,0.34,0.34,0.51,0.51c0.18,0.17,0.35,0.34,0.51,0.52c0.2,0.21,0.39,0.44,0.571,0.671
	c0.12,0.15,0.24,0.3,0.36,0.45c0.2,0.28,0.39,0.56,0.571,0.841c0.07,0.11,0.15,0.2,0.21,0.31l30.417,49.885l28.446-21.88
	c0.17-0.13,0.34-0.23,0.5-0.35c0.22-0.16,0.44-0.32,0.671-0.46c0.2-0.12,0.4-0.23,0.601-0.34c0.24-0.14,0.47-0.28,0.711-0.4
	c0.21-0.1,0.41-0.18,0.621-0.28c0.25-0.1,0.49-0.22,0.741-0.31c0.21-0.08,0.43-0.15,0.641-0.21c0.25-0.09,0.5-0.18,0.761-0.24
	c0.21-0.06,0.43-0.1,0.651-0.15c0.25-0.06,0.51-0.12,0.771-0.16c0.22-0.04,0.43-0.06,0.651-0.09c0.26-0.03,0.53-0.07,0.791-0.08
	c0.21-0.02,0.43-0.02,0.641-0.02c0.27-0.01,0.54-0.02,0.801-0.01c0.21,0,0.42,0.02,0.631,0.04c0.27,0.02,0.54,0.03,0.811,0.06
	c0.2,0.03,0.41,0.07,0.611,0.1c0.27,0.05,0.54,0.09,0.811,0.15c0.2,0.04,0.4,0.1,0.601,0.15c0.26,0.07,0.53,0.14,0.791,0.22
	c0.2,0.07,0.39,0.15,0.591,0.22c0.25,0.1,0.51,0.19,0.761,0.3c0.2,0.08,0.39,0.18,0.581,0.28c0.24,0.12,0.49,0.23,0.721,0.36
	c0.2,0.11,0.39,0.23,0.581,0.35c0.22,0.14,0.45,0.27,0.661,0.42c0.2,0.14,0.39,0.29,0.581,0.43c0.2,0.16,0.4,0.31,0.591,0.47
	c0.19,0.16,0.37,0.34,0.561,0.51c0.18,0.18,0.36,0.34,0.54,0.52c0.18,0.19,0.34,0.39,0.51,0.581c0.14,0.16,0.29,0.31,0.42,0.48
	l11.811,14.823l30.788,38.635L512,416.349L512,416.349z"/>
<path style="fill:#FFB13B;" d="M416.755,255.101c-23.251,0-42.167,18.916-42.167,42.167c0,23.25,18.916,42.166,42.167,42.166
	c23.251,0,42.167-18.916,42.167-42.166C458.922,274.017,440.006,255.101,416.755,255.101z"/>
<path style="fill:#C3DC4B;" d="M512,416.349v50.736c0,18.917-15.394,34.311-34.321,34.311H263.797V377.714l30.788,38.635H512z"/>
<g>
</g>
<g>
</g>
<g>
</g>
<g>
</g>
<g>
</g>
<g>
</g>
<g>
</g>
<g>
</g>
<g>
</g>
<g>
</g>
<g>
</g>
<g>
</g>
<g>
</g>
<g>
</g>
<g>
</g>
</svg>
