<?xml version="1.0" encoding="iso-8859-1"?>
<!-- Generator: Adobe Illustrator 21.0.0, SVG Export Plug-In . SVG Version: 6.00 Build 0)  -->
<svg version="1.1" id="Capa_1" xmlns="http://www.w3.org/2000/svg" xmlns:xlink="http://www.w3.org/1999/xlink" x="0px" y="0px"
	 viewBox="0 0 512 512" style="enable-background:new 0 0 512 512;" xml:space="preserve">
<g>
	<path style="fill:#90BAE1;" d="M512,52.966v441.379c-0.029,9.739-7.917,17.626-17.655,17.655H17.655
		C7.917,511.971,0.029,504.083,0,494.345V52.966H512z"/>
	<path style="fill:#F0C419;" d="M185.379,132.414v52.966c-0.029,9.739-7.917,17.626-17.655,17.655H79.448v-88.276h88.276
		C177.463,114.788,185.35,122.675,185.379,132.414z"/>
	<g>
		<path style="fill:#F29C1F;" d="M88.276,114.759v88.276H61.793c-9.739-0.029-17.626-7.917-17.655-17.655v-52.966
			c0.029-9.739,7.917-17.626,17.655-17.655H88.276z"/>
		<path style="fill:#F29C1F;" d="M150.069,167.724h-26.483c-4.875,0-8.828-3.952-8.828-8.828s3.952-8.828,8.828-8.828h26.483
			c4.875,0,8.828,3.952,8.828,8.828S154.944,167.724,150.069,167.724z"/>
	</g>
	<path style="fill:#F0C419;" d="M185.379,264.828v52.966c-0.029,9.739-7.917,17.626-17.655,17.655H79.448v-88.276h88.276
		C177.463,247.201,185.35,255.089,185.379,264.828z"/>
	<g>
		<path style="fill:#F29C1F;" d="M88.276,247.172v88.276H61.793c-9.739-0.029-17.626-7.917-17.655-17.655v-52.966
			c0.029-9.739,7.917-17.626,17.655-17.655H88.276z"/>
		<path style="fill:#F29C1F;" d="M150.069,300.138h-26.483c-4.875,0-8.828-3.952-8.828-8.828s3.952-8.828,8.828-8.828h26.483
			c4.875,0,8.828,3.952,8.828,8.828S154.944,300.138,150.069,300.138z"/>
	</g>
	<path style="fill:#F0C419;" d="M185.379,397.241v52.966c-0.029,9.739-7.917,17.626-17.655,17.655H79.448v-88.276h88.276
		C177.463,379.615,185.35,387.503,185.379,397.241z"/>
	<g>
		<path style="fill:#F29C1F;" d="M88.276,379.586v88.276H61.793c-9.739-0.029-17.626-7.917-17.655-17.655v-52.966
			c0.029-9.739,7.917-17.626,17.655-17.655H88.276z"/>
		<path style="fill:#F29C1F;" d="M150.069,432.552h-26.483c-4.875,0-8.828-3.952-8.828-8.828c0-4.875,3.952-8.828,8.828-8.828
			h26.483c4.875,0,8.828,3.952,8.828,8.828C158.897,428.599,154.944,432.552,150.069,432.552z"/>
	</g>
	<path style="fill:#3D324C;" d="M512,17.655v52.966H0V17.655C0.029,7.917,7.917,0.029,17.655,0h476.69
		C504.083,0.029,511.971,7.917,512,17.655z"/>
	<path style="fill:#E64C3C;" d="M52.966,44.138h-8.828c-4.875,0-8.828-3.952-8.828-8.828s3.952-8.828,8.828-8.828h8.828
		c4.875,0,8.828,3.952,8.828,8.828S57.841,44.138,52.966,44.138z"/>
	<path style="fill:#F0C419;" d="M97.103,44.138h-8.828c-4.875,0-8.828-3.952-8.828-8.828s3.952-8.828,8.828-8.828h8.828
		c4.875,0,8.828,3.952,8.828,8.828S101.979,44.138,97.103,44.138z"/>
	<path style="fill:#71C285;" d="M141.241,44.138h-8.828c-4.875,0-8.828-3.952-8.828-8.828s3.952-8.828,8.828-8.828h8.828
		c4.875,0,8.828,3.952,8.828,8.828S146.117,44.138,141.241,44.138z"/>
	<path style="fill:#556080;" d="M467.862,44.138h-8.828c-4.875,0-8.828-3.952-8.828-8.828s3.952-8.828,8.828-8.828h8.828
		c4.875,0,8.828,3.952,8.828,8.828S472.737,44.138,467.862,44.138z"/>
	<g>
		<path style="fill:#547580;" d="M229.517,167.724h114.759c4.875,0,8.828-3.952,8.828-8.828s-3.952-8.828-8.828-8.828H229.517
			c-4.875,0-8.828,3.952-8.828,8.828S224.642,167.724,229.517,167.724z"/>
		<path style="fill:#547580;" d="M344.276,282.483H229.517c-4.875,0-8.828,3.952-8.828,8.828s3.952,8.828,8.828,8.828h114.759
			c4.875,0,8.828-3.952,8.828-8.828S349.151,282.483,344.276,282.483z"/>
		<path style="fill:#547580;" d="M344.276,414.897H229.517c-4.875,0-8.828,3.952-8.828,8.828c0,4.875,3.952,8.828,8.828,8.828
			h114.759c4.875,0,8.828-3.952,8.828-8.828C353.103,418.849,349.151,414.897,344.276,414.897z"/>
	</g>
	<g>
		<path style="fill:#14A085;" d="M399.828,182.793c3.447,3.446,9.035,3.446,12.482,0l44.138-44.138
			c3.345-3.464,3.298-8.97-0.108-12.375c-3.405-3.405-8.911-3.453-12.375-0.108l-37.897,37.897l-11.414-11.414
			c-3.464-3.345-8.97-3.298-12.375,0.108s-3.453,8.911-0.108,12.375L399.828,182.793z"/>
		<path style="fill:#14A085;" d="M443.966,258.586l-37.897,37.897l-11.414-11.414c-3.464-3.345-8.97-3.298-12.375,0.108
			s-3.453,8.911-0.108,12.375l17.655,17.655c3.447,3.446,9.035,3.446,12.482,0l44.138-44.138c3.345-3.464,3.298-8.97-0.108-12.375
			C452.935,255.289,447.43,255.241,443.966,258.586z"/>
		<path style="fill:#14A085;" d="M443.966,391l-37.897,37.897l-11.414-11.414c-3.464-3.345-8.97-3.298-12.375,0.108
			c-3.405,3.405-3.453,8.911-0.108,12.375l17.655,17.655c3.447,3.446,9.035,3.446,12.482,0l44.138-44.138
			c3.345-3.464,3.298-8.97-0.108-12.375C452.935,387.703,447.43,387.655,443.966,391z"/>
	</g>
</g>
<g>
</g>
<g>
</g>
<g>
</g>
<g>
</g>
<g>
</g>
<g>
</g>
<g>
</g>
<g>
</g>
<g>
</g>
<g>
</g>
<g>
</g>
<g>
</g>
<g>
</g>
<g>
</g>
<g>
</g>
</svg>
