<?xml version="1.0" encoding="UTF-8"?>
<svg version="1.1" xmlns="http://www.w3.org/2000/svg" width="512" height="512">
<path d="M0 0 C9.00538527 7.23831183 17.10865377 15.40493386 25.26928711 23.56713867 C27.8143708 26.10784352 30.37505199 28.63208527 32.93676758 31.15600586 C49.02868226 47.13568989 62.68190946 63.44145091 63.0793457 87.21850586 C63.01098293 119.57688392 46.01906001 136.18430921 24.35961914 157.89868164 C22.60583446 159.66038034 20.85222803 161.4222565 19.0987854 163.18429565 C13.86427804 168.44260757 8.62552455 173.69667032 3.38557923 178.94956189 C1.90281132 180.43605285 0.4201682 181.92266815 -1.06243229 183.40932608 C-10.29709299 192.6692118 -19.53335588 201.92749625 -28.77439499 211.18101692 C-30.90650122 213.31605206 -33.03859099 215.45110364 -35.1706543 217.58618164 C-35.70046541 218.1167388 -36.23027652 218.64729596 -36.77614251 219.19393061 C-45.36262054 227.79306868 -53.93875399 236.40244806 -62.51072034 245.01604952 C-71.33724638 253.88509122 -80.17326267 262.74458983 -89.01846433 271.59500682 C-93.97427642 276.55421981 -98.92590768 281.51745147 -103.86684418 286.49148941 C-108.5143144 291.1700478 -113.17457583 295.83558473 -117.84349442 300.49275589 C-119.54851815 302.19755961 -121.24931657 303.90660208 -122.94539261 305.62030792 C-147.55914147 330.47578838 -171.80172042 334.58037293 -205.4362793 339.43847656 C-208.26067971 339.84701767 -211.08377264 340.26327408 -213.90600586 340.68652344 C-260.93987419 347.73249487 -260.93987419 347.73249487 -277.17260742 336.11694336 C-285.34904283 329.39576343 -291.16603754 320.85059704 -293.30151367 310.36694336 C-294.7553325 293.38650041 -291.37060338 276.30345382 -288.89904785 259.55596924 C-288.43574452 256.38778485 -287.98858958 253.21740903 -287.5415535 250.04689503 C-287.10229236 246.94422451 -286.65392058 243.84292167 -286.20284271 240.74194908 C-285.99155157 239.28380052 -285.78263456 237.82530545 -285.57639313 236.3664341 C-282.24165027 212.91220587 -275.54970327 195.2711764 -258.54840088 178.34640503 C-257.4240108 177.21521828 -257.4240108 177.21521828 -256.27690578 176.06117928 C-253.7862349 173.5579382 -251.28856307 171.06180817 -248.79077148 168.56567383 C-246.99440346 166.76331608 -245.19844449 164.96055055 -243.40286255 163.15740967 C-239.04398487 158.78273983 -234.68038801 154.4128289 -230.31416705 150.04548942 C-226.76275516 146.49312395 -223.21293372 142.93917687 -219.66420746 139.38412857 C-209.5837513 129.2860821 -199.4991364 119.19221556 -189.40912977 109.10371183 C-188.86637036 108.56103234 -188.32361096 108.01835284 -187.7644043 107.45922852 C-187.2209751 106.91588108 -186.67754591 106.37253365 -186.11764917 105.81272115 C-177.30993742 97.00582241 -168.5122485 88.18898634 -159.71905079 79.36759828 C-150.67156886 70.29134181 -141.61660215 61.22261175 -132.55385852 52.16159356 C-127.47337594 47.08177314 -122.39597747 41.99895832 -117.32663727 36.9080162 C-112.55882786 32.12001859 -107.78068621 27.34257358 -102.9955101 22.5719223 C-101.24538936 20.82388781 -99.49864973 19.07246029 -97.75564194 17.31733322 C-78.48184158 -2.08172787 -78.48184158 -2.08172787 -65.17651367 -7.44555664 C-64.26643555 -7.82325195 -63.35635742 -8.20094727 -62.41870117 -8.59008789 C-41.65023991 -15.53893395 -17.96842758 -12.74963531 0 0 Z M-73.92285156 45.28808594 C-75.22258595 46.55447284 -76.53298786 47.80999811 -77.85351562 49.0546875 C-79.77898109 50.87057557 -81.66936184 52.71729158 -83.55541992 54.57397461 C-84.44421593 55.3947625 -84.44421593 55.3947625 -85.35096741 56.23213196 C-87.74359005 58.65025428 -89.22137638 60.21114368 -89.46238708 63.68717957 C-87.87137025 79.38626333 -77.34001348 94.71657061 -67.30151367 106.36694336 C-66.74979492 107.05143555 -66.19807617 107.73592773 -65.62963867 108.44116211 C-60.85011594 114.23348847 -55.24200896 118.80431295 -49.30151367 123.36694336 C-48.49713867 123.98698242 -47.69276367 124.60702148 -46.86401367 125.24584961 C-35.82115935 133.36452705 -24.38334579 137.83257359 -11.30151367 141.36694336 C-6.80317286 136.97052765 -2.3209903 132.55810589 2.15063477 128.13452148 C3.67175121 126.63344525 5.19644816 125.13598795 6.72485352 123.64233398 C8.92885166 121.48718586 11.11938624 119.31908958 13.30786133 117.14819336 C13.98717712 116.48952271 14.66649292 115.83085205 15.36639404 115.15222168 C22.11544155 108.40635839 26.50638488 100.46402462 26.76879883 90.76928711 C25.90889178 72.78711316 10.60259542 61.04748123 -1.24853516 49.12475586 C-2.57822144 47.78349007 -3.90341321 46.43775396 -5.22412109 45.08764648 C-15.2678573 34.82154432 -24.21189508 25.71023431 -39.11401367 24.05444336 C-54.49496798 25.56238006 -63.37840513 34.94246459 -73.92285156 45.28808594 Z M-125.05731201 96.84185791 C-125.78856462 97.56419715 -125.78856462 97.56419715 -126.53459001 98.3011291 C-128.17755607 99.92666213 -129.81321386 101.55935743 -131.44897461 103.19213867 C-132.62139852 104.35530961 -133.79421885 105.51808108 -134.96740723 106.68048096 C-138.16281994 109.8495906 -141.35148397 113.02540667 -144.53820324 116.20325565 C-146.53105888 118.19025276 -148.52508423 120.17606859 -150.51947784 122.16152191 C-156.76368033 128.378347 -163.00383806 134.59919043 -169.23822188 140.82586217 C-176.42503898 148.00374009 -183.62468574 155.1684056 -190.83601546 162.32165456 C-196.41280058 167.85508578 -201.9778853 173.40011029 -207.53436875 178.9539268 C-210.85067647 182.26814509 -214.17159476 185.5773937 -217.50475311 188.87467194 C-220.64698608 191.98373956 -223.77432874 195.10707268 -226.89128113 198.24147797 C-228.03166061 199.38338795 -229.17709214 200.52028083 -230.32814789 201.65142822 C-239.41944124 210.5947614 -246.16003036 219.67528339 -248.02416992 232.6105957 C-248.19123695 233.71067459 -248.19123695 233.71067459 -248.36167908 234.83297729 C-248.716269 237.20381257 -249.04102605 239.57755241 -249.36401367 241.95288086 C-249.60543145 243.62550068 -249.84829725 245.29791208 -250.0925293 246.97012329 C-250.59611042 250.44947088 -251.08540733 253.93042111 -251.5637207 257.41333008 C-252.1763128 261.86871272 -252.82013555 266.31889891 -253.47398376 270.76839256 C-253.97712691 274.21045682 -254.46623946 277.65439829 -254.95089722 281.09910965 C-255.18320019 282.74143396 -255.41925837 284.38323181 -255.65921021 286.02445602 C-255.99138534 288.31450914 -256.3051427 290.60636115 -256.61401367 292.8996582 C-256.88665039 294.85057877 -256.88665039 294.85057877 -257.16479492 296.84091187 C-257.31044136 300.59719203 -256.87543574 302.96665493 -255.30151367 306.36694336 C-251.95318559 308.59916208 -251.51725483 308.56023275 -247.75170898 308.04003906 C-246.82445007 307.91799606 -245.89719116 307.79595306 -244.9418335 307.67021179 C-243.9313092 307.52501602 -242.92078491 307.37982025 -241.87963867 307.23022461 C-240.81932434 307.08708328 -239.75901001 306.94394196 -238.66656494 306.79646301 C-236.38675555 306.48769778 -234.10761577 306.17395598 -231.82910156 305.85577393 C-228.34472199 305.37293089 -224.85812685 304.91218681 -221.36987305 304.45825195 C-215.45945454 303.68617351 -209.55474143 302.87810391 -203.65161133 302.05224609 C-201.23117983 301.71756145 -198.80958468 301.39119713 -196.38696289 301.07275391 C-192.80850342 300.60122405 -189.23480082 300.10212262 -185.66088867 299.59741211 C-184.59505554 299.46280075 -183.52922241 299.32818939 -182.43109131 299.1894989 C-168.06554092 297.0822224 -158.78061573 289.73242118 -148.92358398 279.7019043 C-147.74083385 278.52073941 -146.55677401 277.34088477 -145.371521 276.16223145 C-142.1850509 272.98594557 -139.01740518 269.79149265 -135.85329533 266.59295177 C-132.53237542 263.24178376 -129.19507395 259.90700269 -125.85980225 256.57012939 C-120.27199487 250.97496233 -114.69554219 245.36868799 -109.12670898 239.75463867 C-101.97153094 232.54148418 -94.79771112 225.34716916 -87.617939 218.15850449 C-81.44244233 211.97506305 -75.27548787 205.78312258 -69.10991573 199.58978748 C-67.12686146 197.59852966 -65.14263008 195.60845045 -63.15824127 193.61852264 C-60.05058672 190.50110835 -56.9482937 187.37845348 -53.85016632 184.25157166 C-52.71020277 183.10253975 -51.56852702 181.95520376 -50.42506409 180.80965424 C-48.87081532 179.25193078 -47.32284209 177.68823767 -45.77642822 176.1227417 C-44.90709278 175.24745693 -44.03775734 174.37217216 -43.1420784 173.47036362 C-41.08200727 171.58192295 -41.08200727 171.58192295 -41.30151367 169.36694336 C-42.28249023 168.90545898 -43.2634668 168.44397461 -44.27416992 167.96850586 C-76.23086305 152.65118076 -105.76179311 126.39399758 -118.30151367 92.36694336 C-121.53526065 92.36694336 -122.81371416 94.61350983 -125.05731201 96.84185791 Z " fill="#FFFFFF" transform="translate(371.301513671875,89.633056640625)"/>
</svg>
