<svg id="Layer_1" enable-background="new 0 0 507.771 507.771" height="512" viewBox="0 0 507.771 507.771" width="512" xmlns="http://www.w3.org/2000/svg"><path d="m174.591 79.296c-96.27 0-174.591 78.321-174.591 174.59s78.321 174.59 174.591 174.59 174.59-78.32 174.59-174.59-78.321-174.59-174.59-174.59z" fill="#eed572"/><path d="m333.181 79.296c-96.27 0-174.59 78.32-174.59 174.59s78.32 174.59 174.59 174.59 174.591-78.32 174.591-174.59-78.322-174.59-174.591-174.59z" fill="#e88793"/><path d="m333.181 79.296c-114.237 0-197.876 108.41-168.894 218.87 31.351.092 70.44-6.212 119.199-22.097 105.327-34.315 176.608-27.216 223.696-7.873 8.32-102.083-72.522-188.9-174.001-188.9z" fill="#fc93a0"/><path d="m496.629 192.524c-40.218-106.773-170.73-147.142-263.915-81.345 55.464-5.414 121.173-.776 163.23 39.068 29.953 28.376 66.459 40.139 100.685 42.277z" fill="#fda5b7"/><path d="m160.213 79.892c-89.569 7.337-160.213 82.566-160.213 173.994 0 51.869 22.745 98.519 58.775 130.524-6.861-44.228-3.161-96.463 30.968-145.086 39.371-56.089 59.149-113.746 70.47-159.432z" fill="#fee67b"/></svg>