<svg id="Capa_1" enable-background="new 0 0 512 512" height="512" viewBox="0 0 512 512" width="512" xmlns="http://www.w3.org/2000/svg">
<g>

<path d="m380.285 25.755h102.255c2.047 0 3.706 1.659 3.706 3.706v102.254c0 2.047 1.659 3.706 3.706 3.706h18.343c2.047 0 3.706-1.659 3.706-3.706v-128.009c-.001-2.047-1.66-3.706-3.707-3.706h-128.009c-2.047 0-3.706 1.659-3.706 3.706v18.343c.001 2.046 1.66 3.706 3.706 3.706z" fill="#e28086"/>
<path d="m25.755 131.715v-102.255c0-2.047 1.659-3.706 3.706-3.706h102.255c2.047 0 3.706-1.659 3.706-3.706v-18.342c0-2.047-1.659-3.706-3.706-3.706h-128.01c-2.047 0-3.706 1.659-3.706 3.706v128.009c0 2.047 1.659 3.706 3.706 3.706h18.343c2.046-.001 3.706-1.66 3.706-3.706z" fill="#e28086"/><path d="m486.245 380.285v102.255c0 2.047-1.659 3.706-3.706 3.706h-102.254c-2.047 0-3.706 1.659-3.706 3.706v18.343c0 2.047 1.659 3.706 3.706 3.706h128.009c2.047 0 3.706-1.659 3.706-3.706v-128.01c0-2.047-1.659-3.706-3.706-3.706h-18.343c-2.046.001-3.706 1.66-3.706 3.706z" fill="#e28086"/><path d="m131.715 486.245h-102.255c-2.047 0-3.706-1.659-3.706-3.706v-102.254c0-2.047-1.659-3.706-3.706-3.706h-18.342c-2.047 0-3.706 1.659-3.706 3.706v128.009c0 2.047 1.659 3.706 3.706 3.706h128.009c2.047 0 3.706-1.659 3.706-3.706v-18.343c-.001-2.046-1.66-3.706-3.706-3.706z" fill="#e28086"/>
</g>
</svg>