<?xml version="1.0" encoding="iso-8859-1"?>
<!-- Generator: Adobe Illustrator 19.0.0, SVG Export Plug-In . SVG Version: 6.00 Build 0)  -->
<svg xmlns="http://www.w3.org/2000/svg" xmlns:xlink="http://www.w3.org/1999/xlink" version="1.1" id="Capa_1" x="0px" y="0px" viewBox="0 0 460 460" style="enable-background:new 0 0 460 460;" xml:space="preserve" width="512" height="512">
<g id="XMLID_2_">
	<path id="XMLID_440_" style="fill:#A8A182;" d="M455,0H181.34C117.716,0,63.345,42.061,45.882,100H45c-24.853,0-45,20.147-45,45v0   c0,15.601,7.941,29.344,20,37.417V410c0,27.57,22.43,50,50,50s50-22.43,50-50V266.497C138.187,275.141,158.522,280,180,280   c68.261,0,125.103-48.856,137.485-113.508c1.807-9.436,6.836-17.95,14.338-23.951l124.423-99.539   c2.372-1.898,3.753-4.771,3.753-7.809V5C460,2.239,457.761,0,455,0z M78.615,151.267C76.24,156.417,71.044,160,65,160H47.663   c5.497-6.133,13.472-10,22.337-10C72.994,150,75.885,150.446,78.615,151.267z M45,130h20c0.603,0,1.195,0.046,1.779,0.115   c-14.664,0.938-27.621,8.222-36.16,19.132C30.222,147.899,30,146.476,30,145C30,136.716,36.716,130,45,130z M100,410   c0,16.542-13.458,30-30,30s-30-13.458-30-30V189.717c1.642,0.182,3.309,0.283,5,0.283h4.203   c10.099,26.403,27.964,48.963,50.797,64.895V410z"/>
	<path id="XMLID_26_" style="fill:#B14724;" d="M460,5v30.194c0,3.038-1.381,5.911-3.753,7.809l-124.423,99.539   c-7.502,6.001-12.531,14.516-14.338,23.951C305.103,231.144,248.261,280,180,280c-59.702,0-110.667-37.375-130.797-90H45   c-1.691,0-3.358-0.102-5-0.283l0,0V180c0-7.678,2.902-14.688,7.663-20H65c8.284,0,15-6.716,15-15s-6.716-15-15-15H45   c-8.284,0-15,6.716-15,15c0,1.477,0.222,2.899,0.62,4.247C23.975,157.736,20,168.409,20,180v2.417l0,0   C7.941,174.344,0,160.601,0,145l0,0c0-24.853,20.147-45,45-45h0.882C63.345,42.062,117.716,0,181.34,0H455   C457.761,0,460,2.239,460,5z"/>
	<path id="XMLID_28_" style="fill:#66270F;" d="M280,140c0,55.228-44.772,100-100,100c-39.951,0-74.425-23.431-90.444-57.298   C101.861,174.671,110,160.79,110,145v0c0-17.191-9.642-32.124-23.811-39.702C100.297,67.176,136.973,40,180,40   C235.228,40,280,84.771,280,140z M310.729,28.906L330,0h-80l19.271,28.906C273.891,35.837,281.67,40,290,40l0,0   C298.33,40,306.109,35.837,310.729,28.906z"/>
</g>















</svg>
